<mxfile host="app.diagrams.net" agent="Mozilla/5.0 (Windows NT 10.0; Win64; x64) AppleWebKit/537.36 (KHTML, like Gecko) Chrome/137.0.0.0 Safari/537.36" version="27.1.1">
  <diagram name="Trang-1" id="gt23MECRmC9eGhrMP80W">
    <mxGraphModel dx="2610" dy="929" grid="0" gridSize="10" guides="1" tooltips="1" connect="1" arrows="1" fold="1" page="1" pageScale="1" pageWidth="827" pageHeight="1169" math="0" shadow="0">
      <root>
        <mxCell id="0" />
        <mxCell id="1" parent="0" />
        <mxCell id="2EM5L-1oZQc2lYcwiExf-1" value="" style="ellipse;html=1;shape=startState;fillColor=#000000;strokeColor=#ff0000;" parent="1" vertex="1">
          <mxGeometry x="-738" y="518" width="30" height="30" as="geometry" />
        </mxCell>
        <mxCell id="2EM5L-1oZQc2lYcwiExf-2" value="&lt;font style=&quot;font-size: 14px;&quot;&gt;System Initialized&lt;/font&gt;" style="edgeStyle=orthogonalEdgeStyle;html=1;verticalAlign=bottom;endArrow=open;endSize=8;strokeColor=#ff0000;rounded=0;entryX=0.5;entryY=1;entryDx=0;entryDy=0;exitX=0.5;exitY=0;exitDx=0;exitDy=0;" parent="1" source="2EM5L-1oZQc2lYcwiExf-1" target="2EM5L-1oZQc2lYcwiExf-7" edge="1">
          <mxGeometry x="-0.0152" relative="1" as="geometry">
            <mxPoint x="-15" y="190" as="targetPoint" />
            <mxPoint x="-723" y="482" as="sourcePoint" />
            <mxPoint as="offset" />
          </mxGeometry>
        </mxCell>
        <mxCell id="2EM5L-1oZQc2lYcwiExf-7" value="&lt;p style=&quot;margin:0px;margin-top:4px;text-align:center;&quot;&gt;&lt;b&gt;Browsing&lt;/b&gt;&lt;/p&gt;&lt;hr size=&quot;1&quot; style=&quot;border-style:solid;&quot;&gt;&lt;div style=&quot;height:2px;&quot;&gt;&lt;/div&gt;" style="verticalAlign=top;align=left;overflow=fill;html=1;whiteSpace=wrap;rounded=1;fillColor=#fff2cc;strokeColor=light-dark(#000000, #6d5100);" parent="1" vertex="1">
          <mxGeometry x="-793" y="310" width="140" height="40" as="geometry" />
        </mxCell>
        <mxCell id="2EM5L-1oZQc2lYcwiExf-34" value="" style="endArrow=open;endFill=1;endSize=12;html=1;rounded=0;entryX=0.008;entryY=0.63;entryDx=0;entryDy=0;entryPerimeter=0;" parent="1" source="2EM5L-1oZQc2lYcwiExf-7" target="2EM5L-1oZQc2lYcwiExf-36" edge="1">
          <mxGeometry width="160" relative="1" as="geometry">
            <mxPoint x="-20" y="280" as="sourcePoint" />
            <mxPoint x="-15" y="300" as="targetPoint" />
            <Array as="points" />
          </mxGeometry>
        </mxCell>
        <mxCell id="2EM5L-1oZQc2lYcwiExf-35" value="&lt;font style=&quot;font-size: 15px;&quot;&gt;Select Room and Submit Booking&lt;/font&gt;" style="edgeLabel;html=1;align=center;verticalAlign=middle;resizable=0;points=[];" parent="2EM5L-1oZQc2lYcwiExf-34" vertex="1" connectable="0">
          <mxGeometry x="-0.135" y="-1" relative="1" as="geometry">
            <mxPoint x="1" y="2" as="offset" />
          </mxGeometry>
        </mxCell>
        <mxCell id="vbNJFK19UPRv6BLIqkNv-2" value="" style="edgeStyle=orthogonalEdgeStyle;rounded=0;orthogonalLoop=1;jettySize=auto;html=1;" edge="1" parent="1" source="2EM5L-1oZQc2lYcwiExf-36" target="vbNJFK19UPRv6BLIqkNv-1">
          <mxGeometry relative="1" as="geometry" />
        </mxCell>
        <mxCell id="vbNJFK19UPRv6BLIqkNv-23" value="&lt;font style=&quot;font-size: 14px;&quot;&gt;Booking Request Recorded&lt;/font&gt;" style="edgeLabel;html=1;align=center;verticalAlign=middle;resizable=0;points=[];" vertex="1" connectable="0" parent="vbNJFK19UPRv6BLIqkNv-2">
          <mxGeometry x="-0.1938" y="5" relative="1" as="geometry">
            <mxPoint as="offset" />
          </mxGeometry>
        </mxCell>
        <mxCell id="2EM5L-1oZQc2lYcwiExf-36" value="&lt;p style=&quot;margin:0px;margin-top:4px;text-align:center;&quot;&gt;&lt;b&gt;Booking Requested&lt;/b&gt;&lt;/p&gt;&lt;hr size=&quot;1&quot; style=&quot;border-style:solid;&quot;&gt;&lt;div style=&quot;height:2px;&quot;&gt;&lt;/div&gt;" style="verticalAlign=top;align=left;overflow=fill;html=1;whiteSpace=wrap;rounded=1;fillColor=#fff2cc;strokeColor=light-dark(#000000, #6d5100);" parent="1" vertex="1">
          <mxGeometry x="-370" y="301" width="140" height="40" as="geometry" />
        </mxCell>
        <mxCell id="2EM5L-1oZQc2lYcwiExf-93" value="" style="ellipse;html=1;shape=endState;fillColor=#000000;strokeColor=#ff0000;" parent="1" vertex="1">
          <mxGeometry x="-277" y="1056" width="30" height="30" as="geometry" />
        </mxCell>
        <mxCell id="vbNJFK19UPRv6BLIqkNv-4" value="" style="edgeStyle=orthogonalEdgeStyle;rounded=0;orthogonalLoop=1;jettySize=auto;html=1;" edge="1" parent="1" source="vbNJFK19UPRv6BLIqkNv-1" target="vbNJFK19UPRv6BLIqkNv-3">
          <mxGeometry relative="1" as="geometry" />
        </mxCell>
        <mxCell id="vbNJFK19UPRv6BLIqkNv-6" value="" style="edgeStyle=orthogonalEdgeStyle;rounded=0;orthogonalLoop=1;jettySize=auto;html=1;" edge="1" parent="1" source="vbNJFK19UPRv6BLIqkNv-1" target="vbNJFK19UPRv6BLIqkNv-5">
          <mxGeometry relative="1" as="geometry" />
        </mxCell>
        <mxCell id="vbNJFK19UPRv6BLIqkNv-1" value="&lt;p style=&quot;margin:0px;margin-top:4px;text-align:center;&quot;&gt;&lt;b&gt;Pending Approval&lt;/b&gt;&lt;/p&gt;&lt;hr size=&quot;1&quot; style=&quot;border-style:solid;&quot;&gt;&lt;div style=&quot;height:2px;&quot;&gt;&lt;/div&gt;" style="verticalAlign=top;align=left;overflow=fill;html=1;whiteSpace=wrap;rounded=1;fillColor=#fff2cc;strokeColor=light-dark(#000000, #6d5100);" vertex="1" parent="1">
          <mxGeometry x="-370" y="430" width="140" height="40" as="geometry" />
        </mxCell>
        <mxCell id="vbNJFK19UPRv6BLIqkNv-8" value="" style="edgeStyle=orthogonalEdgeStyle;rounded=0;orthogonalLoop=1;jettySize=auto;html=1;" edge="1" parent="1" source="vbNJFK19UPRv6BLIqkNv-3" target="vbNJFK19UPRv6BLIqkNv-7">
          <mxGeometry relative="1" as="geometry" />
        </mxCell>
        <mxCell id="vbNJFK19UPRv6BLIqkNv-28" value="&lt;font style=&quot;font-size: 15px;&quot;&gt;Customer Pays Deposit&lt;/font&gt;" style="edgeLabel;html=1;align=center;verticalAlign=middle;resizable=0;points=[];" vertex="1" connectable="0" parent="vbNJFK19UPRv6BLIqkNv-8">
          <mxGeometry x="-0.0688" y="3" relative="1" as="geometry">
            <mxPoint as="offset" />
          </mxGeometry>
        </mxCell>
        <mxCell id="vbNJFK19UPRv6BLIqkNv-3" value="&lt;p style=&quot;margin:0px;margin-top:4px;text-align:center;&quot;&gt;&lt;b&gt;Approval&lt;/b&gt;&lt;/p&gt;&lt;hr size=&quot;1&quot; style=&quot;border-style:solid;&quot;&gt;&lt;div style=&quot;height:2px;&quot;&gt;&lt;/div&gt;" style="verticalAlign=top;align=left;overflow=fill;html=1;whiteSpace=wrap;rounded=1;fillColor=#fff2cc;strokeColor=light-dark(#000000, #6d5100);" vertex="1" parent="1">
          <mxGeometry x="-546" y="505" width="140" height="40" as="geometry" />
        </mxCell>
        <mxCell id="vbNJFK19UPRv6BLIqkNv-21" value="" style="edgeStyle=orthogonalEdgeStyle;rounded=0;orthogonalLoop=1;jettySize=auto;html=1;" edge="1" parent="1" source="vbNJFK19UPRv6BLIqkNv-5" target="vbNJFK19UPRv6BLIqkNv-20">
          <mxGeometry relative="1" as="geometry" />
        </mxCell>
        <mxCell id="vbNJFK19UPRv6BLIqkNv-32" value="&lt;font style=&quot;font-size: 15px;&quot;&gt;Notify Customer&lt;/font&gt;" style="edgeLabel;html=1;align=center;verticalAlign=middle;resizable=0;points=[];" vertex="1" connectable="0" parent="vbNJFK19UPRv6BLIqkNv-21">
          <mxGeometry x="-0.1313" y="-1" relative="1" as="geometry">
            <mxPoint x="1" as="offset" />
          </mxGeometry>
        </mxCell>
        <mxCell id="vbNJFK19UPRv6BLIqkNv-5" value="&lt;p style=&quot;margin:0px;margin-top:4px;text-align:center;&quot;&gt;&lt;b&gt;Rejected&lt;/b&gt;&lt;/p&gt;&lt;hr size=&quot;1&quot; style=&quot;border-style:solid;&quot;&gt;&lt;div style=&quot;height:2px;&quot;&gt;&lt;/div&gt;" style="verticalAlign=top;align=left;overflow=fill;html=1;whiteSpace=wrap;rounded=1;fillColor=#fff2cc;strokeColor=light-dark(#000000, #6d5100);" vertex="1" parent="1">
          <mxGeometry x="-154" y="505" width="140" height="40" as="geometry" />
        </mxCell>
        <mxCell id="vbNJFK19UPRv6BLIqkNv-10" value="" style="edgeStyle=orthogonalEdgeStyle;rounded=0;orthogonalLoop=1;jettySize=auto;html=1;" edge="1" parent="1" source="vbNJFK19UPRv6BLIqkNv-7" target="vbNJFK19UPRv6BLIqkNv-9">
          <mxGeometry relative="1" as="geometry" />
        </mxCell>
        <mxCell id="vbNJFK19UPRv6BLIqkNv-29" value="&lt;font style=&quot;font-size: 15px;&quot;&gt;Awaiting Final Payment Window Opens&lt;/font&gt;" style="edgeLabel;html=1;align=center;verticalAlign=middle;resizable=0;points=[];" vertex="1" connectable="0" parent="vbNJFK19UPRv6BLIqkNv-10">
          <mxGeometry x="0.0875" y="-2" relative="1" as="geometry">
            <mxPoint as="offset" />
          </mxGeometry>
        </mxCell>
        <mxCell id="vbNJFK19UPRv6BLIqkNv-7" value="&lt;p style=&quot;margin:0px;margin-top:4px;text-align:center;&quot;&gt;&lt;b&gt;Deposit Paid&lt;/b&gt;&lt;/p&gt;&lt;hr size=&quot;1&quot; style=&quot;border-style:solid;&quot;&gt;&lt;div style=&quot;height:2px;&quot;&gt;&lt;/div&gt;" style="verticalAlign=top;align=left;overflow=fill;html=1;whiteSpace=wrap;rounded=1;fillColor=#fff2cc;strokeColor=light-dark(#000000, #6d5100);" vertex="1" parent="1">
          <mxGeometry x="-546" y="625" width="140" height="40" as="geometry" />
        </mxCell>
        <mxCell id="vbNJFK19UPRv6BLIqkNv-15" value="" style="edgeStyle=orthogonalEdgeStyle;rounded=0;orthogonalLoop=1;jettySize=auto;html=1;" edge="1" parent="1" source="vbNJFK19UPRv6BLIqkNv-9" target="vbNJFK19UPRv6BLIqkNv-14">
          <mxGeometry relative="1" as="geometry" />
        </mxCell>
        <mxCell id="vbNJFK19UPRv6BLIqkNv-30" value="&lt;font style=&quot;font-size: 15px;&quot;&gt;Final Payment Reminder Triggered&lt;/font&gt;" style="edgeLabel;html=1;align=center;verticalAlign=middle;resizable=0;points=[];" vertex="1" connectable="0" parent="vbNJFK19UPRv6BLIqkNv-15">
          <mxGeometry x="-0.1" y="3" relative="1" as="geometry">
            <mxPoint as="offset" />
          </mxGeometry>
        </mxCell>
        <mxCell id="vbNJFK19UPRv6BLIqkNv-9" value="&lt;p style=&quot;margin:0px;margin-top:4px;text-align:center;&quot;&gt;Pending Final Payment&lt;/p&gt;&lt;hr size=&quot;1&quot; style=&quot;border-style:solid;&quot;&gt;&lt;div style=&quot;height:2px;&quot;&gt;&lt;/div&gt;" style="verticalAlign=top;align=left;overflow=fill;html=1;whiteSpace=wrap;rounded=1;fillColor=#fff2cc;strokeColor=light-dark(#000000, #6d5100);" vertex="1" parent="1">
          <mxGeometry x="-546" y="745" width="140" height="40" as="geometry" />
        </mxCell>
        <mxCell id="vbNJFK19UPRv6BLIqkNv-17" value="" style="edgeStyle=orthogonalEdgeStyle;rounded=0;orthogonalLoop=1;jettySize=auto;html=1;" edge="1" parent="1" source="vbNJFK19UPRv6BLIqkNv-14" target="vbNJFK19UPRv6BLIqkNv-16">
          <mxGeometry relative="1" as="geometry" />
        </mxCell>
        <mxCell id="vbNJFK19UPRv6BLIqkNv-31" value="&lt;font style=&quot;font-size: 15px;&quot;&gt;Final Payment Completed&lt;/font&gt;" style="edgeLabel;html=1;align=center;verticalAlign=middle;resizable=0;points=[];" vertex="1" connectable="0" parent="vbNJFK19UPRv6BLIqkNv-17">
          <mxGeometry x="-0.225" y="5" relative="1" as="geometry">
            <mxPoint as="offset" />
          </mxGeometry>
        </mxCell>
        <mxCell id="vbNJFK19UPRv6BLIqkNv-14" value="&lt;p style=&quot;margin:0px;margin-top:4px;text-align:center;&quot;&gt;Pending Final Payment&lt;/p&gt;&lt;hr size=&quot;1&quot; style=&quot;border-style:solid;&quot;&gt;&lt;div style=&quot;height:2px;&quot;&gt;&lt;/div&gt;" style="verticalAlign=top;align=left;overflow=fill;html=1;whiteSpace=wrap;rounded=1;fillColor=#fff2cc;strokeColor=light-dark(#000000, #6d5100);" vertex="1" parent="1">
          <mxGeometry x="-546" y="865" width="140" height="40" as="geometry" />
        </mxCell>
        <mxCell id="vbNJFK19UPRv6BLIqkNv-19" style="edgeStyle=orthogonalEdgeStyle;rounded=0;orthogonalLoop=1;jettySize=auto;html=1;exitX=0.5;exitY=1;exitDx=0;exitDy=0;entryX=0;entryY=0.5;entryDx=0;entryDy=0;" edge="1" parent="1" source="vbNJFK19UPRv6BLIqkNv-16" target="2EM5L-1oZQc2lYcwiExf-93">
          <mxGeometry relative="1" as="geometry">
            <mxPoint x="-451.1578947368421" y="1118" as="targetPoint" />
          </mxGeometry>
        </mxCell>
        <mxCell id="vbNJFK19UPRv6BLIqkNv-34" value="&lt;font style=&quot;font-size: 15px;&quot;&gt;All Steps Completed&amp;nbsp;&amp;nbsp;&lt;/font&gt;" style="edgeLabel;html=1;align=center;verticalAlign=middle;resizable=0;points=[];" vertex="1" connectable="0" parent="vbNJFK19UPRv6BLIqkNv-19">
          <mxGeometry x="-0.5466" relative="1" as="geometry">
            <mxPoint as="offset" />
          </mxGeometry>
        </mxCell>
        <mxCell id="vbNJFK19UPRv6BLIqkNv-16" value="&lt;p style=&quot;margin:0px;margin-top:4px;text-align:center;&quot;&gt;Booking Confirmed&lt;/p&gt;&lt;hr size=&quot;1&quot; style=&quot;border-style:solid;&quot;&gt;&lt;div style=&quot;height:2px;&quot;&gt;&lt;/div&gt;" style="verticalAlign=top;align=left;overflow=fill;html=1;whiteSpace=wrap;rounded=1;fillColor=#fff2cc;strokeColor=light-dark(#000000, #6d5100);" vertex="1" parent="1">
          <mxGeometry x="-546" y="985" width="140" height="40" as="geometry" />
        </mxCell>
        <mxCell id="vbNJFK19UPRv6BLIqkNv-22" style="edgeStyle=orthogonalEdgeStyle;rounded=0;orthogonalLoop=1;jettySize=auto;html=1;exitX=0.5;exitY=1;exitDx=0;exitDy=0;entryX=1;entryY=0.5;entryDx=0;entryDy=0;" edge="1" parent="1" source="vbNJFK19UPRv6BLIqkNv-20" target="2EM5L-1oZQc2lYcwiExf-93">
          <mxGeometry relative="1" as="geometry" />
        </mxCell>
        <mxCell id="vbNJFK19UPRv6BLIqkNv-33" value="&lt;font style=&quot;font-size: 15px;&quot;&gt;Acknowledgment Sent&amp;nbsp;&lt;/font&gt;" style="edgeLabel;html=1;align=center;verticalAlign=middle;resizable=0;points=[];" vertex="1" connectable="0" parent="vbNJFK19UPRv6BLIqkNv-22">
          <mxGeometry x="-0.2237" y="1" relative="1" as="geometry">
            <mxPoint as="offset" />
          </mxGeometry>
        </mxCell>
        <mxCell id="vbNJFK19UPRv6BLIqkNv-20" value="&lt;p style=&quot;margin:0px;margin-top:4px;text-align:center;&quot;&gt;&lt;b&gt;Notify customer&lt;/b&gt;&lt;/p&gt;&lt;hr size=&quot;1&quot; style=&quot;border-style:solid;&quot;&gt;&lt;div style=&quot;height:2px;&quot;&gt;&lt;/div&gt;" style="verticalAlign=top;align=left;overflow=fill;html=1;whiteSpace=wrap;rounded=1;fillColor=#fff2cc;strokeColor=light-dark(#000000, #6d5100);" vertex="1" parent="1">
          <mxGeometry x="-154" y="625" width="140" height="40" as="geometry" />
        </mxCell>
        <mxCell id="vbNJFK19UPRv6BLIqkNv-24" value="&lt;font style=&quot;font-size: 15px;&quot;&gt;Manager Approves Request&lt;/font&gt;" style="text;html=1;align=center;verticalAlign=middle;resizable=0;points=[];autosize=1;strokeColor=none;fillColor=none;" vertex="1" parent="1">
          <mxGeometry x="-577.5" y="425" width="204" height="30" as="geometry" />
        </mxCell>
        <mxCell id="vbNJFK19UPRv6BLIqkNv-25" value="&lt;font style=&quot;font-size: 15px;&quot;&gt;Manager Rejects Request&lt;/font&gt;" style="text;html=1;align=center;verticalAlign=middle;resizable=0;points=[];autosize=1;strokeColor=none;fillColor=none;" vertex="1" parent="1">
          <mxGeometry x="-200" y="411" width="191" height="30" as="geometry" />
        </mxCell>
      </root>
    </mxGraphModel>
  </diagram>
</mxfile>
